<svg width="20" height="17" viewBox="0 0 20 17" fill="none" xmlns="http://www.w3.org/2000/svg"><path d="M18.095 3.592H14.72L13.286.988A1.903 1.903 0 0011.619 0H8.384c-.692 0-1.33.378-1.666.987L5.283 3.592H1.905A1.91 1.91 0 000 5.507v9.577A1.91 1.91 0 001.905 17h16.19A1.91 1.91 0 0020 15.084V5.507a1.91 1.91 0 00-1.905-1.915zM10 15.437c-2.893 0-5.238-2.358-5.238-5.267 0-2.91 2.345-5.268 5.238-5.268 2.893 0 5.238 2.359 5.238 5.268S12.893 15.437 10 15.437z" fill="#241E0C"/><path d="M10 6.339c-2.102 0-3.81 1.718-3.81 3.83 0 2.113 1.708 3.832 3.809 3.832 2.1 0 3.81-1.72 3.81-3.831 0-2.113-1.71-3.831-3.81-3.831z" fill="#241E0C"/></svg>