<svg width="24" height="24" viewBox="0 0 24 24" fill="none" xmlns="http://www.w3.org/2000/svg"><path d="M2.26255 19.1841C1.30725 18.2028 0.619937 16.9875 0.267791 15.657C-0.0843539 14.3264 -0.0892776 12.9262 0.253502 11.5932C0.596281 10.2601 1.27503 9.03991 2.2234 8.05178C3.17177 7.06365 4.35731 6.34143 5.66411 5.95573C5.26138 7.34513 5.15705 8.80562 5.35814 10.2392C5.55923 11.6727 6.06107 13.0462 6.82998 14.2673C7.59889 15.4884 8.61708 16.5289 9.81619 17.3191C11.0153 18.1092 12.3676 18.6306 13.7822 18.8482C12.7612 20.0271 11.4188 20.8746 9.92348 21.2843C8.42816 21.694 6.84657 21.6476 5.37721 21.151L1.69925 23.9808C1.67911 23.9934 1.65592 24 1.63226 24C1.60861 24 1.58543 23.9933 1.56532 23.9807C1.5452 23.9681 1.52894 23.9501 1.51836 23.9287C1.50777 23.9073 1.50328 23.8833 1.50538 23.8595L2.26255 19.1841ZM24 8.80737C24.0027 11.12 23.1033 13.3403 21.4972 14.9857L22.3348 20.1574C22.3371 20.1838 22.3322 20.2103 22.3204 20.234C22.3087 20.2577 22.2908 20.2776 22.2685 20.2915C22.2463 20.3054 22.2206 20.3128 22.1945 20.3128C22.1683 20.3129 22.1426 20.3055 22.1204 20.2917L18.0519 17.1614C16.3056 17.7512 14.4194 17.7655 12.6645 17.2023C10.9096 16.639 9.37638 15.5272 8.2853 14.0267C7.19423 12.5261 6.60149 10.7142 6.59228 8.85127C6.58308 6.98837 7.15789 5.17049 8.23408 3.65899C9.31028 2.14749 10.8324 1.02022 12.5817 0.439242C14.3309 -0.141734 16.2172 -0.146492 17.9693 0.425655C19.7213 0.997802 21.249 2.11738 22.3326 3.62344C23.4163 5.12949 24 6.94444 24 8.80737ZM17.8293 8.80737C17.8293 9.02084 17.8919 9.22952 18.0091 9.40701C18.1263 9.58451 18.2929 9.72285 18.4878 9.80454C18.6827 9.88623 18.8972 9.90761 19.1041 9.86596C19.311 9.82431 19.501 9.72152 19.6502 9.57057C19.7994 9.41963 19.901 9.22731 19.9421 9.01794C19.9833 8.80857 19.9622 8.59155 19.8814 8.39433C19.8007 8.19711 19.664 8.02854 19.4886 7.90994C19.3132 7.79134 19.1069 7.72804 18.896 7.72804C18.6131 7.72804 18.3418 7.84175 18.1417 8.04417C17.9417 8.24658 17.8293 8.52111 17.8293 8.80737ZM12.7626 8.80737C12.7626 8.5939 12.7001 8.38522 12.5829 8.20773C12.4657 8.03023 12.2991 7.89189 12.1042 7.8102C11.9093 7.72851 11.6948 7.70713 11.4879 7.74878C11.281 7.79042 11.0909 7.89322 10.9417 8.04417C10.7926 8.19512 10.691 8.38743 10.6498 8.5968C10.6086 8.80617 10.6298 9.02319 10.7105 9.22041C10.7912 9.41763 10.928 9.5862 11.1034 9.7048C11.2788 9.8234 11.485 9.8867 11.696 9.8867C11.9789 9.8867 12.2502 9.77299 12.4502 9.57057C12.6503 9.36816 12.7626 9.09363 12.7626 8.80737ZM16.3626 8.80737C16.3626 8.5939 16.3001 8.38522 16.1829 8.20773C16.0657 8.03023 15.8991 7.89189 15.7042 7.8102C15.5093 7.72851 15.2948 7.70713 15.0879 7.74878C14.881 7.79042 14.6909 7.89322 14.5417 8.04417C14.3926 8.19512 14.291 8.38743 14.2498 8.5968C14.2086 8.80617 14.2298 9.02319 14.3105 9.22041C14.3912 9.41763 14.528 9.5862 14.7034 9.7048C14.8788 9.8234 15.085 9.8867 15.296 9.8867C15.5789 9.8867 15.8502 9.77299 16.0502 9.57057C16.2503 9.36816 16.3626 9.09363 16.3626 8.80737Z" fill="white"/></svg>