<svg width="20" height="16" viewBox="0 0 20 16" fill="none" xmlns="http://www.w3.org/2000/svg"><path fillRule="evenodd" clip-rule="evenodd" d="M14.4246 5.87328C16.2825 5.87328 18.1421 5.87328 20 5.87328V7.66834H18.5683V10.0695H15.8545V7.66655H14.4228V5.87328H14.4246ZM3.45866 12.6083C2.61161 12.6083 1.91952 11.9057 1.91952 11.0457V6.42932C1.91952 4.84523 3.18394 3.5633 4.74245 3.5633C6.30272 3.5633 7.56538 4.84702 7.56538 6.42932C7.56538 8.01162 6.30096 9.29534 4.74245 9.29534C4.49238 9.29534 4.24936 9.26137 4.01867 9.20058V7.4967C4.22119 7.63437 4.46421 7.71662 4.7266 7.71662C5.42749 7.71662 5.99454 7.14091 5.99454 6.42932C5.99454 5.71773 5.42749 5.14203 4.7266 5.14203C4.02571 5.14203 3.45866 5.71773 3.45866 6.42932V12.6083ZM17.119 2.14728C15.49 1.2426 12.6812 0 9.53245 0C4.57691 0 0 2.46374 0 8.03486C0 13.6078 4.28458 16 9.27358 16C12.808 16 15.7207 14.5983 17.119 13.7794V10.5934C16.1028 11.2066 14.2362 12.1417 12.2849 12.1417C6.7377 12.1417 6.9455 3.98883 12.1124 3.96737C14.0512 3.95843 15.9426 4.74511 17.119 5.35479V2.14728Z" fill="#A7A59E"/></svg>