<svg width="40" height="40" viewBox="0 0 40 40" fill="none" xmlns="http://www.w3.org/2000/svg"><path fillRule="evenodd" clip-rule="evenodd" d="M30.724 11.525a33.86 33.86 0 013.329 2.13 38.38 38.38 0 014.212 3.53 58.406 58.406 0 011.561 1.624c.232.27.232.671 0 .942a58.406 58.406 0 01-1.561 1.623 38.38 38.38 0 01-4.212 3.531C29.58 28.135 24.832 30.08 20 30.08c-2.204 0-4.39-.405-6.542-1.151l2.711-2.733A7.773 7.773 0 0020 27.2c4.34 0 7.857-3.546 7.857-7.92 0-1.402-.361-2.72-.995-3.862l3.862-3.893zM26.542 9.63C24.39 8.885 22.204 8.48 20 8.48c-4.832 0-9.58 1.945-14.053 5.175a38.375 38.375 0 00-4.212 3.53A59.07 59.07 0 00.174 18.81a.725.725 0 000 .942 58.505 58.505 0 001.561 1.623 38.375 38.375 0 004.212 3.531 33.859 33.859 0 003.329 2.13l3.863-3.893a7.934 7.934 0 01-.996-3.862c0-4.374 3.518-7.92 7.857-7.92 1.391 0 2.698.364 3.831 1.004l2.71-2.733zm-6.363 12.523a2.869 2.869 0 002.673-2.694l-2.673 2.694zm-.358-5.748a2.87 2.87 0 00-2.673 2.694l2.673-2.695zM35.923 2.21L1.639 36.77a.724.724 0 000 1.018.71.71 0 001.01 0L36.934 3.23a.724.724 0 000-1.018.71.71 0 00-1.01 0z" fill="#fff"/></svg>