<svg width="62" height="48" viewBox="0 0 62 48" fill="none" xmlns="http://www.w3.org/2000/svg"><path d="M1.822 22.76a1.058 1.058 0 01-1.456.117.976.976 0 01-.121-1.407C15.875 3.616 25.838-3.262 30.697 1.434c1.827 1.766 1.476 4.385-.481 7.94-1.336 2.426-2.305 3.777-6.956 9.962-.609.809-1.085 1.446-1.539 2.062-6.342 8.602-8.236 13.336-5.49 15.99 2.588 2.502 7.174-.316 15.248-8.556.626-.64 1.276-1.311 2.092-2.16 6.16-6.413 7.306-7.56 9.663-9.454 3.513-2.823 6.191-3.675 8.13-1.802 2.938 2.84 2.07 7.455-1.543 15.58-.287.646-.59 1.313-.975 2.151-3.932 8.555-4.787 11.163-3.682 12.23 2.072 2.003 7.162-1.072 15.018-9.93a1.058 1.058 0 011.457-.108c.433.358.484.989.112 1.408-8.677 9.784-14.609 13.367-18.048 10.043-1.285-1.242-1.238-3.245-.278-6.174.64-1.955.982-2.73 3.532-8.28.382-.831.682-1.492.965-2.129 3.244-7.295 4.018-11.41 1.98-13.378-.87-.841-2.583-.296-5.346 1.924-2.255 1.812-3.399 2.958-9.47 9.279-.82.852-1.475 1.529-2.107 2.174-4.017 4.1-6.904 6.671-9.55 8.297-3.505 2.154-6.453 2.43-8.66.297-2.149-2.076-2.3-4.967-.862-8.562 1.096-2.74 2.994-5.744 6.13-9.999.46-.622.94-1.264 1.55-2.078 7.698-10.234 9.506-13.52 7.649-15.314C25.829-.447 16.502 5.992 1.822 22.76z" fill="#fff"/></svg>