<svg width="130" height="40" viewBox="0 0 130 40" fill="none" xmlns="http://www.w3.org/2000/svg"><g clip-path="url(#clip0)" fill-rule="evenodd" clip-rule="evenodd"><path d="M32.57 16.994c-.567 1.586-1.434 3.403-2.15 5.482-1.023 2.973-.184 3.668 1.854 2.44 1.019-.614 1.932-1.62 2.297-2.795.53-1.702 3.49-7.742 1.468-8.499.168-.246 1.022-.648 1.742-.651 2.452 0 3.96 1.929 3.247 4.023-.536 1.58-1.312 3.369-1.957 5.267-1.62 4.765 1.895 3.652 3.755 1.28.29.013.801.157.994.453-.003 2.343 3.036 2.614 4.391 2.128 1.867-.673 2.718-3.194.078-3.36-6.429-.398-6.625-5.285-3.774-8.149 2.306-2.312 6.978-2.842 9.789-1.21.891-.831 3.444-2.57 5.033-2.003-2.188.941-3.132 2.839-3.372 3.462.34.543.558 1.153.393 1.78-.801 3.054-5.457 2.05-4.105-.863-4.547-1.306-7.464 2.998-2.78 3.571.805.1 1.693.309 2.51.577 2.274.747 2.86 2.695 2.15 4.59-1.17 3.11-4.76 4.513-7.683 4.323-1.9-.125-3.633-.948-4.194-2.861-1.29 1.277-3.809 3.088-5.629 2.93-1.224-.107-2.907-1.03-2.923-3.429-.608.59-1.383 1.415-2.253 2.098-3.559 2.804-6.682.888-5.644-3.915.546-2.53 1.636-5.36 2.147-6.669.43-1.11.976-2.808-.202-3.275-1.453 2.362-4.447 4.59-9.322 6.123 1.29 9.34 5.729 12.98 16.926 11.447 7.632-1.044 15.694-2.443 18.418 7.237-4.338-6.8-11.288-5.255-17.823-3.996-13.123 2.528-21.101-1.686-22.88-14.734-1.279 2.97-2.622 4.998-3.93 6.37-8.45 8.87-14.838-6.551-1.322-7.985.542-.056.206.549-.168.848-1 .792-2.849 1.025-4.011 2.584-1.643 2.2.165 5.142 2.72 1.393 1.263-1.852 2.715-5.127 3.852-10.057.259-1.125.574-2.899-.754-4.055 4.846-1.374 7.043 1.316 5.52 5.42l-1.182 3.347c8.954-.511 14.707-10.92 3.49-11.344-4.612-.175-10.623 1.568-11.24 4.706-.088.446-.032.87.112 1.256.293.776.411 2.135-.362 1.602C-1.378 8.93 8.392 1.449 18.742 2.247c7.863.605 11.97 6.108 9.203 11.138a3.106 3.106 0 011.511-.399c2.802-.003 3.809 2.06 3.114 4.008z" fill="#DE2104"/><path d="M111.148 28.453c-9.888 8.146-28.475-1.393-43.41 3.328-3.739 1.181-7.718 3.49-10.315 7.265 3.185-2.394 6.863-3.958 10.422-4.83 8.08-1.983 16.981.62 25 1.582 3.88.465 7.458.45 10.456-.134 3.646-.71 7.959-3.802 7.847-7.211zm6.566.399c4.354 0 8.057-4.771 8.767-8.3.957-.32 2.481-1.411 3.11-2.648.508-1 .527-2.085.141-1.502-.811 1.221-2.173 2.013-3.195 2.268-.498-2.511-3.553-2.452-4.603-.42-.713 1.383-.103 3.157 2.599 2.674-.794 1.929-2.839 4.332-5.064 4.26-1.072-.038-1.92-1.38-1.234-3.964.402-1.521 1.318-3.17 2.403-4.17 1.87-1.727 4.506-1.686 5.899-.277.67 1.015.689-1.191-.779-2.643-2.15-2.123-6.348-.929-8.442.854a9.833 9.833 0 00-1.686 1.873c-.801.894-1.926 1.511-2.836 1.817-.499-2.512-3.553-2.453-4.603-.421-.717 1.384-.103 3.157 2.599 2.674-.795 1.929-2.839 4.332-5.065 4.26-1.072-.037-1.919-1.38-1.234-3.964.402-1.521 1.319-3.17 2.403-4.17 1.87-1.727 4.507-1.686 5.9-.277.67 1.016.688-1.19-.78-2.643-2.15-2.122-6.348-.929-8.442.854-2.465 2.097-3.765 5.516-3.905 8.324a7.398 7.398 0 00-.01.455c-1.779 1.677-4.886 2.749-3.511-1.297 1.05-3.091 2.52-6.33 4.066-10.368 1.063.068 1.883.121 2.322.137 2.606.094 6.171-1.212 6.208-4.485a2.314 2.314 0 00-.667-1.692c-.152-.156-.268.175-.408.549-.508 1.365-2.393 2.593-4.88 2.67a42.214 42.214 0 01-3.263-.046c.249-.418 1.932-.408 2.197-1.325 1.792-4.89-2.93-6.597-4.934-5.21 1.605.427 1.104 2.477.78 3.73-.21.804-.48 1.692-.795 2.637-.327-.022-.633-.044-.904-.06a45.197 45.197 0 00-4.338-.056c.243-.417 1.873-.38 2.185-1.29l.134-.37c2.396-6.642-4.335-5.324-5.037-4.84 1.344.454 1.19 2.203.714 3.895a47.381 47.381 0 01-.907 2.839c-.555.072-1.084.159-1.586.265-1.649.343-2.97.841-3.787 1.567-1.745 1.552-.246 3.133.01 2.325.262-.832 2.007-1.259 4.357-1.449-1.446 3.74-3.06 7.517-3.862 11.238-7.632 6.124-3.088-3.322-1-6.432.25-.374.115-.49-.24-.418l-1.549.14c2.25-4.497-7.34-6.005-12.017.93-1.328 1.969-2.269 4.792-2.287 7.189-.041 4.677 3.683 5.55 6.772 3.104a8.936 8.936 0 001.698-1.805c-.016 1.742.701 3.02 2.25 3.02 1.789 0 4.323-1.742 6.021-3.553-.215 1.867.994 3.553 2.562 3.553 1.873 0 4.547-2.082 5.7-3.824-.1 1.957.358 3.824 2.406 3.824 1.695 0 4.101-1.515 5.784-3.39.483 2.003 1.87 3.39 4.123 3.39 4.354 0 8.056-4.771 8.767-8.299a5.964 5.964 0 001.362-.686 12.507 12.507 0 00-.692 3.441c-.159 3.088 1.305 5.538 4.303 5.538zm-21.94-16.994c-1.156-.05-2.368-.087-3.565-.1-1.583 4.11-3.166 7.67-4.2 10.711-1.587 4.666 2.988 2.216 4.06-.137l-.003.031c.066-.268.134-.517.2-.738.813-2.758 2.268-6.395 3.509-9.767zm-17.676 4.809c-1.044 1.863-2.054 4.886-2.521 6.613-.4 1.467-4.133 3.936-4.254.551-.084-2.406 1.692-5.843 3.746-7.083 1.181-.717 2.63-.758 3.03-.081zm-13.407.782c1.54.29 1.147 2.487.125 3.122.442.166.215 2.244-.998 2.933.549.72-.124 2.45-1.047 3.08.222.691-.078 2.86-2.15 2.854l-.73-.003-1.24 3.646c-.377 1.106-.826 2.113-2.094 3.44l-1.39 2.802.524-2.82c-.393-1.64-.019-2.83.218-3.59l1.1-3.49-.81-.004c-1.749-.003-1.297-2.29-.365-2.521 1.524-.374 2.914-.567 4.481-.527.256.006.265-.293-.024-.346-1.381-.265-2.727-.24-4.136-.078-.779.088-.296-1.86.608-2.088 1.549-.39 2.951-.582 4.537-.539.253.006.265-.29-.025-.346-1.396-.268-2.76-.24-4.185-.071-.773.09-.25-1.808.686-2.048 1.561-.396 3.05-.592 4.6-.555.252.007.264-.293-.025-.346-1.415-.27-2.799-.24-4.242-.068-.779.093-.25-2.275 1.418-2.552.069-.013.14-.022.209-.035l1.518-4.472c.542-1.599 1.33-2.764 2.231-3.428l-.411-.1c-1.362-.333-7.13-1.533-12.13-1.427-4.487.097-8.355 1.3-7.85 4.288.134.795-.492.52-1.004-.34-.296-.495-.417-1.128-.314-1.82.794-5.391 9.81-6.232 13.425-6.083 6.95.293 15.695 2.923 21.28 2.116 5.27-.76 6.388-4.176.903-3.895-3.502.177-5.282.838-8.654 2.11-.96.361-2.98 1.206-.994-.353C71.214 1.16 78.96-.714 82.98.262c6.33 1.536 4.373 8.383-4.574 9.978-2.668.477-5.351.524-7.95.309-1.113-.115-2.855.798-3.581 1.695-1.12 1.393-1.555 3.37-2.185 5.205z" fill="#241E0C"/></g><defs><clipPath id="clip0"><path d="M0 0h130v40H0V0z" fill="#fff"/></clipPath></defs></svg>