<svg width="156" height="120" viewBox="0 0 156 120" fill="none" xmlns="http://www.w3.org/2000/svg"><path d="M9.766 109.391c-.141 1.203-.586 2.132-1.336 2.789-.745.651-1.737.976-2.977.976-1.344 0-2.422-.482-3.234-1.445-.808-.964-1.211-2.253-1.211-3.867v-1.094c0-1.057.187-1.987.562-2.789.38-.802.917-1.417 1.61-1.844.692-.432 1.494-.648 2.406-.648 1.208 0 2.177.338 2.906 1.015.73.672 1.154 1.605 1.274 2.797H8.258c-.13-.906-.414-1.562-.852-1.969-.432-.406-1.039-.609-1.82-.609-.958 0-1.711.354-2.258 1.063-.542.708-.812 1.716-.812 3.023v1.102c0 1.234.257 2.216.773 2.945.516.729 1.237 1.094 2.164 1.094.833 0 1.471-.188 1.914-.563.448-.38.745-1.039.89-1.976h1.509zm1.445-.696c0-.828.161-1.573.484-2.234.328-.662.782-1.172 1.36-1.531.583-.36 1.247-.539 1.992-.539 1.15 0 2.08.398 2.789 1.195.713.797 1.07 1.857 1.07 3.18v.101c0 .823-.159 1.563-.476 2.219a3.555 3.555 0 01-1.352 1.523c-.583.365-1.255.547-2.015.547-1.146 0-2.076-.398-2.79-1.195-.708-.797-1.062-1.852-1.062-3.164v-.102zm1.453.172c0 .938.216 1.69.649 2.258.437.568 1.02.852 1.75.852.734 0 1.317-.287 1.75-.86.432-.578.648-1.385.648-2.422 0-.927-.221-1.677-.664-2.25-.438-.578-1.021-.867-1.75-.867-.714 0-1.29.284-1.727.852-.437.567-.656 1.38-.656 2.437zm7.672-.172c0-.828.161-1.573.484-2.234.328-.662.782-1.172 1.36-1.531.583-.36 1.247-.539 1.992-.539 1.15 0 2.08.398 2.789 1.195.713.797 1.07 1.857 1.07 3.18v.101c0 .823-.159 1.563-.476 2.219a3.555 3.555 0 01-1.352 1.523c-.583.365-1.255.547-2.015.547-1.146 0-2.076-.398-2.79-1.195-.708-.797-1.062-1.852-1.062-3.164v-.102zm1.453.172c0 .938.216 1.69.648 2.258.438.568 1.021.852 1.75.852.735 0 1.318-.287 1.75-.86.433-.578.649-1.385.649-2.422 0-.927-.221-1.677-.664-2.25-.438-.578-1.021-.867-1.75-.867-.714 0-1.29.284-1.727.852-.437.567-.656 1.38-.656 2.437zm11.766-3.836c1.062 0 1.911.357 2.547 1.071.64.708.96 1.643.96 2.804v.133c0 .797-.153 1.51-.46 2.141a3.438 3.438 0 01-1.329 1.461c-.573.343-1.234.515-1.984.515-1.135 0-2.05-.377-2.742-1.133-.693-.76-1.04-1.778-1.04-3.054v-.703c0-1.776.329-3.188.985-4.235.662-1.047 1.636-1.685 2.922-1.914.73-.13 1.221-.289 1.477-.476a.91.91 0 00.382-.774h1.188c0 .651-.148 1.159-.445 1.524-.292.364-.76.622-1.407.773l-1.078.242c-.86.203-1.505.547-1.937 1.032-.427.479-.706 1.119-.836 1.921.765-.885 1.698-1.328 2.797-1.328zm-.282 1.188c-.708 0-1.27.239-1.687.719-.417.473-.625 1.132-.625 1.976v.125c0 .906.208 1.625.625 2.156.422.526.99.789 1.703.789.719 0 1.286-.265 1.703-.796.417-.532.625-1.308.625-2.329 0-.797-.21-1.435-.633-1.914-.416-.484-.987-.726-1.71-.726zm6.766-1.672v7.273h3.094v-7.273h1.445v7.273h3.086v-7.273h1.453v7.273h1.188l-.14 3.688h-1.298V113H38.586v-8.453h1.453zm15.344 8.609c-1.146 0-2.078-.375-2.797-1.125-.719-.755-1.078-1.763-1.078-3.023v-.266c0-.838.159-1.586.476-2.242.323-.661.771-1.177 1.344-1.547a3.38 3.38 0 011.875-.562c1.1 0 1.953.362 2.563 1.086.609.724.914 1.76.914 3.109v.602h-5.727c.021.833.263 1.507.727 2.023.468.51 1.062.766 1.78.766.511 0 .944-.105 1.298-.313.354-.208.664-.484.93-.828l.882.687c-.708 1.089-1.77 1.633-3.187 1.633zm-.18-7.578c-.583 0-1.073.214-1.469.641-.395.422-.64 1.015-.734 1.781h4.234v-.109c-.041-.735-.24-1.302-.593-1.703-.355-.407-.834-.61-1.438-.61zM67.266 113H65.82v-3.609h-3.882V113h-1.454v-8.453h1.453v3.664h3.883v-3.664h1.446V113zm7.796-8.453h1.446V113h-1.445v-6.164L71.163 113H69.72v-8.453h1.445v6.172l3.898-6.172zm9.235 0h1.445V113h-1.445v-6.164L80.398 113h-1.445v-8.453h1.445v6.172l3.899-6.172zm.39-3.078c0 .63-.216 1.138-.648 1.523-.427.38-.99.57-1.687.57-.698 0-1.264-.192-1.696-.578-.432-.385-.648-.89-.648-1.515h1.18c0 .364.099.651.296.859.198.203.487.305.868.305.364 0 .648-.102.851-.305.209-.203.313-.489.313-.859h1.171zM98.945 113H97.5v-7.258h-3.89V113h-1.454v-8.453h6.79V113zm1.938-4.305c0-.828.161-1.573.484-2.234.328-.662.781-1.172 1.36-1.531.583-.36 1.247-.539 1.992-.539 1.151 0 2.08.398 2.789 1.195.713.797 1.07 1.857 1.07 3.18v.101c0 .823-.159 1.563-.476 2.219a3.557 3.557 0 01-1.352 1.523c-.583.365-1.255.547-2.016.547-1.145 0-2.075-.398-2.789-1.195-.708-.797-1.062-1.852-1.062-3.164v-.102zm1.453.172c0 .938.216 1.69.648 2.258.438.568 1.021.852 1.75.852.735 0 1.318-.287 1.75-.86.433-.578.649-1.385.649-2.422 0-.927-.222-1.677-.664-2.25-.438-.578-1.021-.867-1.75-.867-.714 0-1.289.284-1.727.852-.437.567-.656 1.38-.656 2.437zm10.687.531h-1.054V113h-1.453v-8.453h1.453v3.578h.945l2.844-3.578h1.75l-3.344 4.062 3.625 4.391h-1.836l-2.93-3.602zM124.25 113c-.083-.167-.151-.464-.203-.891-.672.698-1.474 1.047-2.406 1.047-.834 0-1.519-.234-2.055-.703-.531-.474-.797-1.073-.797-1.797 0-.88.333-1.562 1-2.047.672-.489 1.615-.734 2.828-.734h1.406v-.664c0-.505-.151-.906-.453-1.203-.302-.302-.747-.453-1.336-.453-.515 0-.948.13-1.296.39-.349.261-.524.576-.524.946h-1.453c0-.422.148-.829.445-1.219.302-.396.709-.708 1.219-.938a4.131 4.131 0 011.695-.343c.974 0 1.737.244 2.289.734.552.484.839 1.154.86 2.008v3.89c0 .776.099 1.394.297 1.852V113h-1.516zm-2.398-1.102c.453 0 .882-.117 1.289-.351.406-.235.7-.539.882-.914v-1.735h-1.132c-1.771 0-2.657.519-2.657 1.555 0 .453.151.807.454 1.063.302.255.69.382 1.164.382zM138.609 113h-1.445v-3.609h-3.883V113h-1.453v-8.453h1.453v3.664h3.883v-3.664h1.445V113zm5.836.156c-1.146 0-2.078-.375-2.797-1.125-.718-.755-1.078-1.763-1.078-3.023v-.266c0-.838.159-1.586.477-2.242.323-.661.771-1.177 1.344-1.547a3.38 3.38 0 011.875-.562c1.099 0 1.953.362 2.562 1.086.61.724.914 1.76.914 3.109v.602h-5.726c.02.833.263 1.507.726 2.023.469.51 1.063.766 1.781.766.511 0 .943-.105 1.297-.313.354-.208.664-.484.93-.828l.883.687c-.709 1.089-1.771 1.633-3.188 1.633zm-.179-7.578c-.584 0-1.073.214-1.469.641-.396.422-.641 1.015-.735 1.781h4.235v-.109c-.042-.735-.24-1.302-.594-1.703-.354-.407-.833-.61-1.437-.61zm11.343.141h-2.836V113h-1.445v-7.281h-2.781v-1.172h7.062v1.172z" fill="#A7A59E"/><path d="M80.093 0H56.4C43.497 0 33 10.617 33 23.666v6.326c0 10.18 6.401 19.191 15.928 22.424l.342.117-.181.315c-1.25 2.18-2.946 5.602-5.185 10.46a2.06 2.06 0 00.397 2.295c.374.378.899.595 1.441.595.287 0 .572-.063.822-.18l26.74-12.359h6.789c12.903 0 23.4-10.617 23.4-23.666v-6.326C103.493 10.617 92.996 0 80.093 0zm-29.75 59.21c1.557-3.127 2.776-5.35 3.344-6.097l.034-.046.049-.03c.528-.322.876-.863.954-1.481a2.033 2.033 0 00-1.651-2.265c-9.297-1.643-16.045-9.76-16.045-19.299v-6.326c0-10.806 8.69-19.596 19.371-19.596h23.694c10.681 0 19.371 8.79 19.371 19.596v6.326c0 10.806-8.69 19.596-19.371 19.596h-7.228c-.285 0-.575.064-.838.185L49.965 59.971l.378-.76z" fill="#A7A59E"/><path d="M103.666 14.18a25.643 25.643 0 011.323 4.52c8.261 2.425 13.981 10.037 13.981 18.77v6.326c0 9.538-6.748 17.655-16.046 19.299a2.03 2.03 0 00-1.65 2.264c.079.619.426 1.16.954 1.483l.082.073c.571.753 1.79 2.976 3.345 6.1l.378.757-22.06-10.195a2.006 2.006 0 00-.839-.186h-7.228c-4.003 0-7.823-1.253-11.107-3.604l-4.15 1.919c4.248 3.708 9.656 5.755 15.258 5.755h6.79l26.737 12.359c.252.117.537.18.823.18.542 0 1.067-.216 1.442-.596.592-.603.75-1.526.395-2.294-2.235-4.85-3.931-8.27-5.185-10.46l-.181-.316.342-.116c9.528-3.233 15.929-12.244 15.929-22.423V37.47c0-11.525-8.123-21.293-19.333-23.288z" fill="#A7A59E"/><path d="M50.341 22.499c-2.653 0-4.812 2.182-4.812 4.862 0 2.682 2.16 4.864 4.812 4.864 2.653 0 4.812-2.182 4.812-4.864 0-2.681-2.158-4.862-4.812-4.862z" fill="#A7A59E"/><path d="M86.15 22.499c-2.653 0-4.812 2.182-4.812 4.862 0 2.682 2.159 4.864 4.812 4.864 2.654 0 4.812-2.182 4.812-4.864 0-2.681-2.158-4.862-4.812-4.862z" fill="#A7A59E"/><path d="M68.248 22.499c-2.654 0-4.813 2.182-4.813 4.862 0 2.682 2.16 4.864 4.813 4.864 2.652 0 4.811-2.182 4.811-4.864 0-2.681-2.159-4.862-4.811-4.862z" fill="#A7A59E"/></svg>