<?xml version="1.0" standalone="no"?>
<!DOCTYPE svg PUBLIC "-//W3C//DTD SVG 20010904//EN"
 "http://www.w3.org/TR/2001/REC-SVG-20010904/DTD/svg10.dtd">
<svg version="1.0" xmlns="http://www.w3.org/2000/svg"
 width="48.000000pt" height="48.000000pt" viewBox="0 0 48.000000 48.000000"
 preserveAspectRatio="xMidYMid meet">

<g transform="translate(0.000000,48.000000) scale(0.100000,-0.100000)"
fill="#000000" stroke="none">
<path d="M180 471 c-119 -36 -197 -155 -176 -266 6 -32 9 -34 22 -20 9 8 19
15 24 15 18 0 40 32 40 58 l-1 27 -19 -24 c-18 -21 -20 -21 -27 -5 -11 30 40
64 98 64 88 0 117 -57 54 -107 -19 -15 -35 -33 -35 -40 0 -17 47 -69 55 -61 4
3 7 28 7 55 1 30 11 70 28 108 l28 60 -37 8 c-35 8 -68 5 -104 -8 -13 -5 -16
-3 -11 8 10 26 60 40 123 34 33 -3 63 -1 68 4 5 5 26 15 48 22 l39 14 -27 18
c-61 39 -138 54 -197 36z"/>
<path d="M345 380 c-16 -7 -13 -9 17 -9 20 -1 40 4 43 9 7 12 -32 12 -60 0z"/>
<path d="M426 344 c-11 -8 -39 -14 -62 -14 -50 0 -63 -14 -70 -71 -3 -24 -19
-64 -35 -88 -16 -25 -29 -48 -29 -53 0 -9 41 -11 65 -2 21 8 45 55 46 91 l1
28 10 -32 c30 -93 -89 -168 -179 -113 -18 10 -39 33 -48 50 l-16 31 -30 -26
c-17 -14 -35 -22 -41 -19 -24 15 15 -37 52 -69 97 -83 222 -76 315 18 70 69
92 152 64 236 -16 46 -21 50 -43 33z"/>
<path d="M120 275 c7 -8 10 -26 8 -40 -6 -29 -1 -31 30 -9 40 28 24 64 -30 64
-17 0 -18 -3 -8 -15z"/>
<path d="M47 183 c-10 -9 -9 -23 2 -23 5 0 11 7 15 15 5 15 -5 20 -17 8z"/>
</g>
</svg>
