<svg height="933.333" viewBox="0 0 700 700" width="933.333" xmlns="http://www.w3.org/2000/svg"><path d="m581.5 105.6c-22.9 2.6-38 5.5-56.1 10.8-27.5 7.9-52.9 20.3-68.1 33.3-9.8 8.3-6.6 8.3 15 .2 47-17.8 62.5-21.3 94.7-21.3 19.3-.1 20.8 0 25.5 2.2 2.7 1.3 6 3.2 7.2 4.4 7.5 7 .6 18.1-16.1 25.9-16.8 7.8-34.3 10.5-63.6 9.6-22.6-.7-42.7-3.1-96.1-11.6-65.6-10.5-87.4-12.7-115.3-11.8-35.5 1.2-64.5 7.6-87.7 19.3-22.5 11.4-35.6 27.7-37.6 46.4-.6 5.9.2 13 1.5 13 .4 0 1.8-2.6 3.2-5.8 3.3-7.7 9.1-13.1 19.1-18.1 26.8-13.2 80.3-16.6 139.9-9 19.6 2.5 41.2 6.1 55.9 9.4 6.3 1.4 11.6 2.5 11.8 2.5.3 0-2.4 3.1-6 7-9.5 10.3-13.7 19.4-27.6 61.1l-12.2 36.7-3.8.6c-4.8.7-12.2 7.1-15 12.9-2.1 4.3-2.7 10.3-1.3 12.2.4.6 9.2 1 22.7 1 22.2 0 28.2.9 27.3 3.8-.3.8-4.5 1.4-13.9 1.8-16.3.8-35.7 4.3-40.2 7.3-4.7 3.2-7.8 9.1-7.5 14.6l.3 4.5 16.5-.4c22.1-.5 35.5 1.6 33.4 5.1-.3.4-4.7.8-9.7.8-9.9 0-24.9 1.9-36.2 4.7-5.1 1.2-7.7 2.4-9.7 4.6-4.7 5-7.1 17.4-3.4 17.8.6.1 8.5 0 17.6-.1 18.2-.2 27 .5 29.7 2.5 1 .7 1.6 1.5 1.3 1.8s-7.2 1-15.5 1.6c-16.2 1.2-33.7 4.4-37.2 6.7-5.5 3.5-7.6 14.9-3.7 20.1 3 4 6.1 5.3 13 5.3h6.2l-6.5 20.2c-3.5 11.2-7.1 23.2-7.8 26.8-1.5 6.7-1.8 20.2-.6 25.5.4 1.7-.1 7.4-1.1 13-3.2 18-3.3 17.9 3.7 4.2 3.7-7.2 8.9-15.6 11.8-19 10.5-12.3 13.6-18.9 24.2-50.4l6.8-20.3h6.6c9.2 0 16.1-3.3 20-9.5 3.4-5.3 5.5-13.2 4.9-17.7-.4-2.6 0-3.6 2.3-5.6 1.6-1.3 4.5-5.7 6.5-9.7 3.4-6.8 3.6-7.9 3.2-14.2l-.5-6.8 4.2-4.7c2.4-2.6 4.9-6.8 5.8-9.8 1.9-5.8 2.3-14.5.7-15.5-.7-.4.3-2.2 2.3-4.5 8.5-9.3 8-24.9-.9-28.6-1.9-.8-3.4-1.8-3.4-2.2 0-1.7 15-45.4 18.4-53.7 7.8-18.6 14.6-26.4 29.4-33.8l8.6-4.2 26.5.3c57.7.7 94.9-6.4 123.5-23.6 8.4-5 23.6-18.4 23.6-20.8 0-1.9-10.5-18.5-19.3-30.4-9.6-13.1-17.9-23.2-26.1-31.7l-6.9-7.3-7.6.1c-4.2.1-8.9.4-10.6.5z"/><path d="m192 231.6c-30 2.9-55.7 9.7-78.1 20.9-15.2 7.6-25.1 14.5-35.5 24.9-7.4 7.5-9.9 10.8-13.5 18.1-4.3 8.7-4.4 9-4.4 18.9 0 9.5.2 10.6 3.4 17.1 3.7 7.6 15.8 20.8 22 24 3.3 1.7 3.5 1.7 4.9-.1 1.6-2.2 1-9.8-1.3-16.4-11.6-32.9 43-64 112.3-64 37.3 0 61.3 9.4 70.2 27.5 2.2 4.3 2.5 6.3 2.4 15 0 8.5-.4 10.9-2.6 16.3-7.8 18.3-27.5 38-49.3 48.9-12.9 6.6-31 11.9-44.2 13l-7.3.6 5.1-14.4c11.7-32.7 11.3-31.2 11.3-44.4.1-10.2-.3-12.8-2.2-17.6-3.2-8-9-14.2-17-18.1-6.4-3.2-7.1-3.3-18.7-3.3-9.1 0-13.3.4-17.5 1.9-3 1-5.6 2-5.8 2.1-.2.2 1.3 2.4 3.2 4.9 7.8 10.2 8 22 1.1 49.6-11.9 47.1-29.2 87.3-45.2 105-14.5 15.9-29.3 13.4-29.3-5 0-8.4 3.5-15.6 10.9-23.1 5.6-5.5 9-7.8 22.8-14.8 15.9-8.1 20.3-11.4 20.3-15.2 0-2.3-1-2.3-13.1-.3-32.5 5.4-57.4 21.1-67.3 42.4-3.8 8.2-6 19.1-5.3 26.9.8 9.6 7.7 25 14 31.4 12.9 13 33.8 15.2 53 5.6 24.7-12.5 45.5-36.6 64.4-74.7 4.1-8.3 7.7-15.2 7.8-15.2s.8 4.4 1.5 9.7c8.8 71.4 47.6 126.3 107.1 151.6 21.2 9.1 41.7 13.5 66.4 14.4 49.6 1.8 95.9-14 131.1-44.6 46-39.9 62.5-106.9 40.2-162.3-3.7-9.3-11.2-22.3-16.2-28.3l-3.3-3.9 2.3 10.9c3.6 17.3 4.7 30.8 4.1 48.8-1.5 39.4-13.4 68.4-38.7 93.8-19 19.1-40.7 30.7-69.1 37.1-9 2-13.1 2.3-29.9 2.3-20.9 0-27.8-1-44.4-6.2-37.5-11.7-67.6-40.5-82.7-79.3-4.6-11.7-9.4-29.5-10.4-38.7l-.7-6.1 8.3-2.7c39.1-12.9 72.4-35 88.7-58.7 11.8-17.3 16.4-39.6 11.7-57.3-9.8-37.1-49.4-63.4-103-68.5-10.3-.9-26.4-1.1-34.5-.4z"/></svg>