<svg version="1" xmlns="http://www.w3.org/2000/svg" width="933.333" height="933.333" viewBox="0 0 700.000000 700.000000"><path d="M330.5.6c-2.2.2-9.2.9-15.5 1.5-57 5.2-116 26.8-163.5 59.7-23.7 16.3-56.1 46.4-73.2 67.7C35 183.6 9.7 244.9 1.8 314.5c-1.6 14.2-1.6 56.9 0 71 3.1 27.2 8.2 50.4 16.4 75l5.3 16 .6-10c.9-13.6 4.1-21.8 12.6-32.7 11-14 31.1-24.9 55.2-29.8 10.9-2.2 17.6-2.6 18.6-1 .8 1.3-1.9 5.7-4.9 8.2-1.2.9-8.8 5.1-17.1 9.2-8.2 4.2-16.3 8.8-18 10.3-14.2 13.3-18.4 29.6-10 38C78 486.2 110.8 433.6 130 357c6.8-27.1 6.5-38.6-1-49.4l-3.9-5.6 7.2-2.2c9.6-3 24.9-3.2 32.2-.4 14.4 5.5 22.6 16.8 24.1 33.4.9 9.5-1.2 18.9-9.6 42.6-3.9 10.9-6.9 20.1-6.6 20.3.8.8 15.8-1.7 25.2-4.2 39.3-10.5 71.1-38.9 76.4-68.3 2.1-11.5-1.9-23.2-10.7-31.3-19.1-17.6-67.7-21.8-114.1-9.8-34.3 8.8-56 24.5-60.2 43.4-.9 3.9-.7 6.1 1 12.9 1.2 4.6 2 10.4 1.8 13.2-.4 6.8-2.8 7-10.7 1-8.2-6.4-13.6-12.7-17.8-21.4-3.4-6.8-3.7-8.1-3.7-16.1.1-14.4 5.3-25 19-38.8 22.2-22.3 59.9-38.5 101.5-43.9 16.4-2 48.6-1.5 62.2 1 45.8 8.6 79.3 34.3 87.7 67.2 3.9 15.1 2.1 30.6-5.4 45.9-5.5 11.4-11.3 19.2-22.1 29.4-15.9 15-41.5 29.7-68 39.2-6.6 2.3-12.3 4.5-12.7 4.8-1.1 1 3.1 21.8 6.8 33.5 7.6 23.4 18.7 42 34.8 58.1 18.7 18.7 39.5 29.6 68 35.7 14.5 3.1 39.8 3.1 54.7 0 19.1-3.9 35.8-10.5 50.1-19.7 49.5-32 70-89.6 56.3-158.2-1.4-6.7-2.5-12.6-2.5-13 .1-1.2 3.6 3.4 9.7 12.6 14.6 21.9 21.2 47.6 20 77.5-.7 16.5-2.5 27.1-7.4 41.5-13.3 39.8-45.5 73.8-87.2 92.1-63.2 27.6-135.9 20.4-188.9-18.9-39.3-29.2-64.8-75.5-71.5-130l-1.3-10.5-7.1 14.5c-11.8 23.8-23 40.3-37 54.4-29 29.2-59.5 35.2-80.5 15.8l-5.2-4.8 5.9 11c18.3 34.5 38.7 61.8 66.6 89 41.5 40.4 88.4 68.1 143.9 84.8 93.4 28.2 196.7 15.1 280.4-35.6 25.1-15.1 42.6-28.7 64.5-50.1 58.6-57.3 92.9-128.2 103.3-213.1 1.6-13.3 1.6-59 0-73-4.3-36.2-12.9-69.3-26.4-101-5.4-12.8-15.6-33.2-18-36.3-.8-.9-2.3.1-6.2 4.1-17.3 18-44.4 29.9-81.9 35.9-11.6 1.9-17.6 2.2-49.7 2.3-36.4.1-36.5.2-42.5 2.6-8 3.3-16.7 9.2-21.1 14.3-2 2.2-5.8 8.6-8.4 14.1-5.2 10.7-22.6 60.8-21.3 61.3 3 1 5.9 3.1 7.6 5.3 4.3 5.9 2.7 18.5-3.3 24.9-2.4 2.6-2.7 3.5-2 6.1 2 6.8-3.1 21.3-9.2 26.4-2.5 2.1-2.7 2.7-1.7 5.2 2.3 6-1.8 18.7-8.5 26-3.1 3.5-3.6 4.7-3.6 9.1 0 9.7-5.3 19.2-13 23.3-1.4.7-6.1 1.6-10.5 1.9l-8 .5-8 23.5c-9 26.4-13.1 34.8-21.6 44.9-3.8 4.6-8.4 12.1-13.3 21.8-4.1 8.1-7.5 14.3-7.5 13.8-.1-.6 1.1-7.1 2.5-14.5 2.3-12 2.4-14.2 1.5-21.5-1.6-11.6-.3-19.2 7.9-45.2 3.9-12.2 7-22.4 7-22.7 0-.3-2.7-.6-6-.6-3.5 0-7.4-.7-9-1.5-7.5-3.9-8-16.6-.9-23.2 4.1-3.8 29.7-8.3 46.9-8.3 9.5 0 8.9-2-1.1-3.8-5.1-.9-12.5-1.2-24-.8-11.8.3-16.9.2-17.8-.7-2.6-2.6-.3-12 4.3-17.3 2.6-3 4.3-3.8 11.1-5.4 9.2-2.1 20.7-3.6 34.8-4.6 10.6-.6 12.5-2.2 4.6-3.8-5.2-1-36.2-1.3-40.1-.3-1.9.5-3.2.2-4.3-1-3.6-3.5 1.5-16.7 7.6-19.8 6.3-3.3 33.4-7.5 48.1-7.5 4.3 0 5.9-.3 5.6-1.2-.8-2.4-7.4-3.1-28.6-3.2-19.4-.1-21.4-.3-22.3-1.9-1.8-3.2 1.7-13.3 6.5-18.5 2.3-2.6 7.6-5.6 11.7-6.5 2.4-.6 3.4-3 15.4-38.6 13.9-41.4 17.6-49.5 27.1-59.8 2.9-3.1 5.2-5.8 5.1-5.9-.1-.1-6.9-1.6-15.1-3.3-72.5-15.1-142.8-16.7-181.1-4-15.9 5.3-24.4 11.8-29.6 22.8-2.7 5.5-3.3 6.3-4 4.6-1.5-3.8-.9-15.2 1.1-21.6 2.4-7.9 6.6-14.8 13.3-21.7 21.2-22 66.4-35.4 119.2-35.5 25.9 0 43.5 2 108.5 12.3 78 12.3 105.7 14.3 132.5 9.4 25.1-4.6 43.5-15.7 43.5-26.2 0-4.8-1.5-6.9-6.8-9.6-9-4.5-22.4-5.6-43.3-3.6-23.4 2.3-38.4 6.2-71.9 18.5-26.1 9.6-28 10.1-28 8.1 0-3.2 14.1-14 28.2-21.6 29.7-16 78.9-28.9 110.6-29l8.7-.1-9.8-9.5C536.9 44.3 464 10.7 387 2 377 .9 337.3-.1 330.5.6z"/></svg>